<svg width="97" height="94" viewBox="0 0 97 94" fill="none" xmlns="http://www.w3.org/2000/svg">
<path d="M20.0618 87.5761H76.9271C89.0273 78.7712 96.925 64.5395 96.925 48.4303C96.925 21.6831 75.2419 0 48.4947 0C21.7476 0 0.0644532 21.6825 0.0644532 48.4303C0.0638804 64.5395 7.961 78.7712 20.0618 87.5761Z" fill="#FEDE02"/>
<path d="M58.1396 33.4531C58.1396 33.4531 62.0621 39.9383 56.8474 42.7822L55.9492 37.2261L57.4075 34.8542L58.1396 33.4531Z" fill="#3D2B2C"/>
<path d="M38.1209 34.8791C38.1209 34.8791 35.0376 40.8092 39.7241 43.0878L40.4785 37.2235L39.0202 34.8516L38.1209 34.8791Z" fill="#3D2B2C"/>
<path d="M91.3362 87.5781C91.7165 79.2777 83.1292 55.3183 69.562 55.3183L48.4935 51.1719L27.425 55.3183C13.8578 55.3183 5.27047 79.2777 5.65081 87.5781H5.6428H48.4929H91.343H91.3362Z" fill="#AB6B51"/>
<path d="M64.5286 54.328L48.4933 51.1719L32.0249 54.4133C34.1082 63.6628 40.5504 70.455 48.267 70.455C56.0083 70.455 62.4672 63.621 64.5286 54.328Z" fill="#FDF0E0"/>
<path d="M40.5042 38.4226C39.4955 44.7817 37.8115 53.9882 36.9203 55.6699C36.9203 55.6699 35.966 67.2914 48.8138 66.2134C54.4999 65.7362 60.9862 61.4391 59.3858 54.5673C58.7065 51.6501 57.1754 45.7354 55.9508 37.2266L40.5042 38.4226Z" fill="#F5BCAE"/>
<path d="M37.4424 54.1446C37.4418 54.156 37.4326 54.2065 37.4326 54.2156C52.0343 48.5266 55.4848 40.1753 56.0163 37.635C55.9951 37.4889 55.9717 37.3743 55.9499 37.2266L40.5028 38.4226C40.5051 38.536 40.4215 39.0177 40.3035 39.6455C39.4695 44.7697 38.3021 51.1128 37.4424 54.1446Z" fill="#3D2B2C"/>
<path d="M49.6393 20.0045C39.7936 17.3485 39.3038 27.5304 39.3038 27.5304C39.3038 27.5304 37.5196 36.8481 40.3142 41.8652C40.5393 42.2696 40.7719 42.647 41.0102 42.9993C43.4182 46.5621 48.1689 47.3336 51.592 44.7309C51.9379 44.4674 52.2879 44.1775 52.639 43.8585C56.9035 39.983 58.2135 30.5892 58.2135 30.5892C58.2135 30.5892 59.8282 20.5882 49.6393 20.0045Z" fill="#F5BCAE"/>
<path d="M38.9308 30.0848C38.9308 30.0848 39.1908 26.2058 45.0706 25.0797C46.1841 24.8667 47.8819 23.3316 50.2389 23.3316C53.7106 23.3316 54.3481 25.6416 55.5796 26.9522C57.7734 29.288 58.4625 30.7229 58.667 29.2382C59.8887 20.3771 53.5233 17.5234 53.5233 17.5234H43.8431C43.8431 17.5234 36.3309 19.4881 38.9308 30.0848Z" fill="#3D2B2C"/>
<path d="M48.6379 39.4375C48.536 39.4375 48.4523 39.3596 48.4403 39.2519C48.434 39.1442 48.5119 39.0543 48.6259 39.0423C48.6436 39.0423 50.5539 38.8744 51.6737 37.1143C51.7396 37.0364 51.8536 37.0066 51.9492 37.0541C52.0391 37.1142 52.0632 37.234 52.0088 37.3296C50.775 39.2576 48.7393 39.4312 48.6494 39.4375C48.6494 39.4375 48.6436 39.4375 48.6379 39.4375Z" fill="black"/>
<path d="M44.0791 31.4048C44.0654 32.0835 43.803 32.6288 43.4937 32.6225C43.1838 32.6162 42.9438 32.0606 42.9576 31.3819C42.9713 30.7031 43.2337 30.1578 43.543 30.1641C43.8529 30.1704 44.0929 30.726 44.0791 31.4048Z" fill="#3B261C"/>
<path d="M52.3664 31.4073C52.3538 32.0448 52.1075 32.5569 51.8165 32.5512C51.5255 32.5454 51.3004 32.0236 51.313 31.3861C51.3256 30.7486 51.5719 30.2365 51.8629 30.2422C52.1539 30.248 52.3796 30.7698 52.3664 31.4073Z" fill="#3B261C"/>
<path d="M45.068 29.6761C45.0142 29.6761 44.9603 29.6521 44.9185 29.6103C43.7151 28.2212 42.1399 29.215 42.0803 29.2689C41.9784 29.317 41.8707 29.2929 41.8048 29.2087C41.751 29.1131 41.775 28.9934 41.8644 28.9332C41.8822 28.9155 43.7987 27.7178 45.2175 29.3462C45.2891 29.4298 45.2777 29.5558 45.1998 29.6274C45.158 29.6584 45.1161 29.6761 45.068 29.6761Z" fill="black"/>
<path d="M49.7756 29.6716C49.7275 29.6716 49.6856 29.6538 49.6438 29.6235C49.5659 29.5519 49.5539 29.4259 49.6261 29.3422C51.0334 27.7373 52.9672 28.9172 52.9855 28.9293C53.0754 28.9894 53.0995 29.1091 53.0451 29.2048C52.9792 29.2884 52.8773 29.3245 52.7696 29.2649C52.7037 29.2111 51.105 28.2287 49.9251 29.6063C49.8833 29.6481 49.8294 29.6716 49.7756 29.6716Z" fill="black"/>
<path d="M56.4773 30.377C56.4773 30.377 56.8485 26.8629 58.6888 27.3039C60.5292 27.745 61.869 34.4152 57.4081 34.8562C52.9466 35.2973 56.4773 30.377 56.4773 30.377Z" fill="#F5BCAE"/>
<path d="M58.4221 33.6039C58.362 33.6039 58.2961 33.5982 58.2302 33.5861C57.8591 33.5145 57.4037 33.2029 57.3023 32.7779C57.2605 32.5923 57.2542 32.2389 57.6735 31.9159C57.8711 31.7664 58.1283 31.5865 58.3499 31.5865C58.4158 31.5865 58.4817 31.6043 58.5355 31.6403C58.7813 31.8082 58.673 32.2509 58.6495 32.3409C58.6255 32.4067 58.5659 32.4549 58.5 32.4549C58.488 32.4549 58.4702 32.4491 58.4582 32.4491C58.3746 32.4251 58.3328 32.3414 58.3505 32.2572C58.3986 32.1014 58.3986 31.9222 58.3625 31.8918C58.3625 31.8861 58.2549 31.8437 57.8654 32.1553C57.6437 32.3288 57.5538 32.5087 57.6019 32.7063C57.6614 32.9698 57.9673 33.2213 58.2904 33.2871C58.3981 33.2992 58.6134 33.3169 58.7274 33.1617C59.1587 32.5751 59.35 30.3412 58.5476 29.3354C58.386 29.1258 58.272 29.1258 58.2182 29.1556C57.823 29.2272 57.3682 30.2576 57.1763 30.8802C57.1585 30.9581 57.0686 31.024 56.9907 30.9822C56.9071 30.9581 56.859 30.8745 56.8887 30.7966C56.9426 30.611 57.4518 28.9883 58.1644 28.8503C58.3202 28.8085 58.5476 28.8445 58.787 29.1435C59.6851 30.2633 59.4634 32.6765 58.9789 33.341C58.8534 33.5139 58.6558 33.6039 58.4221 33.6039Z" fill="black"/>
<path d="M38.9713 30.377C38.9713 30.377 38.6002 26.8629 36.7598 27.3039C34.9194 27.745 33.5796 34.4152 38.0405 34.8562C42.502 35.2973 38.9713 30.377 38.9713 30.377Z" fill="#F5BCAE"/>
<path d="M37.0267 33.6016C36.793 33.6016 36.5954 33.5117 36.4699 33.3381C35.9848 32.6737 35.7631 30.2605 36.6618 29.1407C36.9013 28.8474 37.135 28.8114 37.2845 28.8474C37.997 28.9849 38.5062 30.6076 38.5601 30.7938C38.5898 30.8717 38.5423 30.9553 38.4581 30.9794C38.3802 31.0155 38.2966 30.9553 38.2725 30.8774C38.0806 30.2548 37.6258 29.2249 37.2306 29.1527C37.2186 29.147 37.2066 29.147 37.1888 29.147C37.1292 29.147 37.0273 29.1711 36.9013 29.3326C36.0988 30.3384 36.2907 32.5723 36.7214 33.1589C36.8354 33.3147 37.045 33.3026 37.1584 33.2843C37.4815 33.2184 37.7874 32.967 37.8469 32.7035C37.8951 32.5059 37.8051 32.326 37.5835 32.1525C37.1882 31.8409 37.0863 31.8833 37.0863 31.889C37.0502 31.9188 37.0502 32.0986 37.0983 32.2544C37.116 32.3381 37.0742 32.4223 36.9906 32.4463C36.9007 32.4406 36.8228 32.4165 36.7987 32.3386C36.7747 32.2487 36.667 31.8059 36.9127 31.6381C37.1464 31.4886 37.5176 31.7217 37.7748 31.9136C38.194 32.2367 38.1878 32.5901 38.1459 32.7757C38.044 33.2007 37.5892 33.5123 37.218 33.5839C37.1527 33.5959 37.0868 33.6016 37.0267 33.6016Z" fill="black"/>
<path d="M47.1285 35.2389C47.0804 35.2509 47.0328 35.1971 47.0386 35.1369C47.0683 34.8076 47.3857 31.8915 48.1521 31.6641C48.2122 31.6698 48.254 31.6818 48.2661 31.7299C48.2781 31.7781 48.254 31.8256 48.2002 31.8439C47.715 31.9877 47.3439 33.9518 47.2184 35.161C47.2121 35.2028 47.176 35.2389 47.1285 35.2389Z" fill="black"/>
<path d="M69.0348 55.2174L67.5335 54.9219C66.2825 59.7906 61.5564 73.7261 48.346 73.7261C48.2086 73.7261 48.0677 73.7261 47.9296 73.7204C32.5845 73.3882 28.4707 57.7057 27.9162 55.226L27.427 55.3223C27.0736 55.3223 26.7385 55.3864 26.3926 55.4116C26.8382 57.3998 31.2556 74.8906 47.8941 75.2538C48.0499 75.2601 48.2023 75.2601 48.3552 75.2601C62.6962 75.2589 67.73 60.3302 69.0348 55.2174Z" fill="#FDF0E0"/>
<path d="M48.3539 87.7745C48.2462 87.7745 48.1562 87.6846 48.1562 87.5769V75.2601C48.1562 75.1524 48.2462 75.0625 48.3539 75.0625C48.4615 75.0625 48.5515 75.1524 48.5515 75.2601V87.5769C48.5515 87.6852 48.4615 87.7745 48.3539 87.7745Z" fill="#FDF0E0"/>
<path d="M55.4067 16.4294C56.2398 12.7654 53.9448 9.11984 50.2808 8.28679C46.6169 7.45374 42.9713 9.74866 42.1382 13.4126C41.3052 17.0766 43.6001 20.7222 47.2641 21.5552C50.9281 22.3883 54.5737 20.0934 55.4067 16.4294Z" fill="#3D2B2C"/>
<path d="M90.497 90.7969H6.4917V93.6494H90.497V90.7969Z" fill="#FEDE02"/>
</svg>
