<svg width="98" height="93" viewBox="0 0 98 93" fill="none" xmlns="http://www.w3.org/2000/svg">
<path d="M19.2806 86.6765H79.5151C90.6616 77.8034 97.8278 64.1439 97.8278 48.7896C97.8278 22.0425 76.1447 0.359375 49.3976 0.359375C22.6504 0.359375 0.967285 22.0425 0.967285 48.7896C0.967858 64.1439 8.13407 77.8034 19.2806 86.6765Z" fill="#AFCAF5"/>
<path d="M38.636 14.8438C38.636 14.8438 37.224 18.5171 39.8778 22.1692C42.5321 25.8213 42.4474 14.8438 42.4474 14.8438H38.636Z" fill="#3D2B2C"/>
<path d="M71.3885 45.4744C71.0792 45.4515 70.7802 45.3839 70.4652 45.3839L49.3967 40.6641C49.3967 40.6641 27.7147 45.4515 27.4054 45.4744C14.3812 46.4298 6.18341 72.8763 6.55458 82.1051L6.54255 86.747H92.2514L92.2394 82.1051C92.6105 72.8763 84.4127 46.4298 71.3885 45.4744Z" fill="#3D2B2C"/>
<path d="M8.03941 71.8203C7.79483 72.7752 7.58003 73.7008 7.39502 74.6001H91.4004C91.2154 73.7008 91.0006 72.7752 90.756 71.8203H8.03941Z" fill="#297B77"/>
<path d="M6.54199 86.7428H92.2508L92.2468 85.2031H6.54657L6.54199 86.7428Z" fill="#297B77"/>
<path d="M27.406 45.4742C25.2912 45.6294 23.3191 46.5098 21.4741 47.8261H77.3209C75.476 46.5098 73.5038 45.6294 71.3891 45.4742C71.0798 45.4518 70.7808 45.3837 70.4657 45.3837L68.9621 45.0469H29.4331C28.2337 45.3064 27.4621 45.4702 27.406 45.4742Z" fill="#297B77"/>
<path d="M6.75019 78.5156C6.63105 79.5404 6.5732 80.4643 6.56689 81.2954H92.2265C92.2202 80.4643 92.1623 79.5404 92.0432 78.5156H6.75019Z" fill="#297B77"/>
<path d="M17.3926 51.7422C16.6835 52.6117 16.0013 53.5333 15.354 54.522H83.4414C82.7942 53.5333 82.112 52.6123 81.4028 51.7422H17.3926Z" fill="#297B77"/>
<path d="M13.0763 58.4297C12.6055 59.3393 12.1552 60.2643 11.7319 61.2095H87.0629C86.639 60.2643 86.1888 59.3393 85.7185 58.4297H13.0763Z" fill="#297B77"/>
<path d="M10.1404 65.125C9.79505 66.0564 9.47257 66.9803 9.17529 67.9048H89.6184C89.3212 66.9803 88.9987 66.0558 88.6533 65.125H10.1404Z" fill="#297B77"/>
<path d="M59.6178 25.5078C59.6178 25.5078 59.2914 30.3216 56.4904 30.9946L55.4932 26.7256L59.6178 25.5078Z" fill="#3D2B2C"/>
<path d="M39.1211 26.5938C39.1211 26.5938 39.4476 31.4075 42.2485 32.0805L43.2458 27.8115L39.1211 26.5938Z" fill="#3D2B2C"/>
<path d="M49.1808 63.7053C62.9147 63.7053 64.4899 47.9282 64.6697 44.0854L49.399 40.6641C49.399 40.6641 40.2922 42.6746 33.7967 44.0968L33.7961 44.0974C33.7961 44.0974 33.5435 63.7053 49.1808 63.7053Z" fill="#E57281"/>
<path d="M41.4067 29.9382C40.398 36.2973 39.1207 42.4829 37.8228 47.1856C37.8228 47.1856 38.635 58.1924 49.7163 57.729C55.4173 57.4907 61.8887 52.9548 60.2883 46.083C59.609 43.1657 58.0779 37.251 56.8532 28.7422L41.4067 29.9382Z" fill="#F5BCAE"/>
<path d="M39.1211 42.4835C40.5319 42.8513 43.0035 42.574 43.0035 42.5815C55.2584 40.131 56.3891 31.6909 56.9206 29.1506C56.8994 29.0045 56.876 28.89 56.8542 28.7422L41.4071 29.9382C41.4094 30.051 41.3263 30.5299 41.2089 31.1542C40.6069 34.8505 39.8325 39.1917 39.1211 42.4835Z" fill="#3D2B2C"/>
<path d="M50.2099 11.4662C40.284 9.1263 40.1207 19.3192 40.1207 19.3192C40.1207 19.3192 38.6361 28.6889 41.5894 33.6138C41.8277 34.0107 42.0722 34.3808 42.3214 34.725C44.8423 38.2087 49.6154 38.8279 52.9536 36.1169C53.291 35.8425 53.6312 35.5412 53.972 35.2113C58.1105 31.2012 59.1186 21.7701 59.1186 21.7701C59.1186 21.7701 60.412 11.7233 50.2099 11.4662Z" fill="#F5BCAE"/>
<path d="M40.35 17.9188C45.5567 22.4347 52.1547 16.9577 52.1547 16.9577C59.4413 13.0604 58.6789 21.3779 59.5804 19.2179C60.6659 16.6186 60.5364 12.4853 57.6335 11.6708C56.866 11.4554 56.744 10.3946 56.5355 9.92261C54.7043 5.78189 48.7959 5.12089 45.5562 5.21998C40.0275 5.38838 37.5566 9.17512 38.5859 14.6092C38.8287 15.8877 39.3608 17.0608 40.35 17.9188Z" fill="#3D2B2C"/>
<path d="M48.9931 31.7058C48.0469 31.7058 47.3343 31.3404 47.3045 31.3283C47.2146 31.2802 47.1848 31.1725 47.2266 31.0826C47.2805 30.9927 47.3761 30.9686 47.4724 31.0047C47.5921 31.0706 50.3346 32.4476 52.0054 29.2502C52.0593 29.1603 52.179 29.1362 52.2512 29.1723C52.3411 29.2204 52.3709 29.3281 52.3291 29.4181C51.3708 31.2504 50.0539 31.6754 49.1197 31.7052C49.0767 31.7058 49.0349 31.7058 48.9931 31.7058Z" fill="black"/>
<path d="M45.1233 23.7307C45.1313 24.4095 44.8867 24.9634 44.5768 24.9668C44.2669 24.9703 44.0098 24.4232 44.0012 23.7439C43.9931 23.0646 44.2378 22.5113 44.5476 22.5078C44.8581 22.5044 45.1152 23.052 45.1233 23.7307Z" fill="#3B261C"/>
<path d="M52.1658 23.8053C52.1733 24.4428 51.9436 24.9623 51.6526 24.9658C51.3616 24.9692 51.1199 24.4548 51.1125 23.8173C51.105 23.1798 51.3347 22.6597 51.6257 22.6563C51.9167 22.6534 52.1584 23.1672 52.1658 23.8053Z" fill="#3B261C"/>
<path d="M41.1853 19.4172C41.1314 19.4172 41.0775 19.3931 41.0415 19.3513C40.9699 19.2734 40.9756 19.148 41.0535 19.0758C41.1073 19.022 42.3887 17.8781 44.3826 18.5431C44.4903 18.5792 44.5441 18.6869 44.5086 18.7888C44.4725 18.8908 44.3705 18.9567 44.2629 18.9149C42.4786 18.3277 41.3347 19.3582 41.317 19.3639C41.2809 19.3989 41.2334 19.4172 41.1853 19.4172Z" fill="black"/>
<path d="M50.8614 19.3214C50.7956 19.3214 50.7297 19.2854 50.6936 19.2195C50.6397 19.1296 50.6696 19.0098 50.7658 18.956C52.5741 17.8963 54.0708 18.7584 54.1366 18.7945C54.2266 18.8483 54.2564 18.968 54.2025 19.0637C54.1487 19.1593 54.041 19.1834 53.9333 19.1296C53.8852 19.0998 52.5683 18.3632 50.9576 19.2911C50.9273 19.3094 50.8975 19.3214 50.8614 19.3214Z" fill="black"/>
<path d="M57.3756 21.6088C57.3756 21.6088 57.6339 18.0844 59.4875 18.4665C61.341 18.8485 62.8939 25.4723 58.449 26.056C54.0041 26.6397 57.3756 21.6088 57.3756 21.6088Z" fill="#F5BCAE"/>
<path d="M59.3931 24.7744C59.3393 24.7744 59.2854 24.7744 59.2253 24.7624C58.8478 24.6965 58.393 24.4033 58.279 23.984C58.2309 23.8041 58.2131 23.4513 58.6261 23.1099C58.8776 22.9065 59.243 22.6551 59.4704 22.8103C59.7219 22.9718 59.6262 23.4209 59.6022 23.5051C59.5844 23.5887 59.5002 23.6191 59.4166 23.6191C59.333 23.595 59.2848 23.5114 59.3026 23.4335C59.3444 23.272 59.3387 23.0984 59.3083 23.0681C59.314 23.0681 59.1886 23.0503 58.8174 23.3493C58.6078 23.5229 58.5242 23.7085 58.5717 23.9003C58.6433 24.1575 58.9492 24.4033 59.2785 24.4571C59.3925 24.4812 59.6079 24.4811 59.7156 24.3253C60.1228 23.7205 60.2426 21.4809 59.4103 20.5048C59.2367 20.3072 59.1348 20.3313 59.0752 20.3313C58.68 20.4212 58.2607 21.4631 58.0934 22.0978C58.0757 22.1636 58.0098 22.2117 57.9439 22.2117C57.9319 22.2117 57.9199 22.206 57.9021 22.206C57.8242 22.182 57.7761 22.0983 57.7944 22.0141C57.8483 21.8286 58.3094 20.1938 59.0099 20.0323C59.1714 20.0082 59.3994 20.0145 59.6388 20.3015C60.5731 21.3915 60.4293 23.8161 59.9682 24.4932C59.8479 24.6788 59.6388 24.7744 59.3931 24.7744Z" fill="black"/>
<path d="M39.8781 22.1668C39.8781 22.1668 39.3946 18.6665 37.5691 19.166C35.7436 19.6655 34.6181 26.3757 39.091 26.6736C43.5646 26.9714 39.8781 22.1668 39.8781 22.1668Z" fill="#F5BCAE"/>
<path d="M38.0102 25.4644C37.7886 25.4644 37.5973 25.3808 37.4776 25.2187C36.9746 24.5663 36.6751 22.1589 37.5377 21.015C37.7594 20.7154 38.0045 20.6736 38.1483 20.7034C38.8609 20.8174 39.4239 22.416 39.4835 22.6016C39.5133 22.6795 39.4715 22.7694 39.3878 22.7935C39.3397 22.8233 39.22 22.7815 39.1959 22.6978C38.9806 22.0752 38.5012 21.0694 38.1002 21.0035C38.0704 21.0035 37.9444 20.9737 37.7829 21.1948C37.0102 22.2247 37.2737 24.4523 37.717 25.0268C37.8367 25.1826 38.04 25.1586 38.1603 25.1408C38.4777 25.0629 38.7709 24.7994 38.8248 24.5359C38.8666 24.3383 38.7767 24.1585 38.5493 23.9969C38.1661 23.7157 38.0286 23.7455 38.04 23.7512C38.0102 23.781 38.016 23.9546 38.0641 24.1104C38.0939 24.194 38.0463 24.2782 37.9684 24.3022C37.8848 24.332 37.8006 24.2902 37.7771 24.2066C37.7473 24.1167 37.6213 23.6796 37.8608 23.4998C38.1002 23.3262 38.4656 23.5599 38.7291 23.7455C39.1661 24.0628 39.1662 24.4162 39.1301 24.6018C39.0401 25.0268 38.5974 25.3504 38.2256 25.4404C38.1477 25.453 38.0761 25.4644 38.0102 25.4644Z" fill="black"/>
<path d="M47.6276 26.7545C47.6219 26.7545 47.6219 26.7545 47.6156 26.7545C47.5675 26.7488 47.532 26.7064 47.5377 26.6525C47.5675 26.3232 47.8848 23.4071 48.6512 23.1797C48.6993 23.1797 48.7532 23.1974 48.7652 23.2456C48.7772 23.2937 48.7532 23.3412 48.6993 23.3595C48.2142 23.5033 47.843 25.4674 47.7176 26.6766C47.7118 26.719 47.6757 26.7545 47.6276 26.7545Z" fill="black"/>
<path d="M44.0051 27.2369C41.8136 27.2369 40.0293 25.4527 40.0293 23.2669C40.0293 21.0811 41.8136 19.2969 44.0051 19.2969C46.1909 19.2969 47.9751 21.0811 47.9751 23.2669C47.9751 25.4527 46.1903 27.2369 44.0051 27.2369ZM44.0051 19.6927C42.0289 19.6927 40.4245 21.2976 40.4245 23.2675C40.4245 25.2373 42.0295 26.8423 44.0051 26.8423C45.9749 26.8423 47.5799 25.2373 47.5799 23.2675C47.5799 21.2976 45.9749 19.6927 44.0051 19.6927Z" fill="black"/>
<path d="M52.4471 27.2369C50.2613 27.2369 48.4771 25.4527 48.4771 23.2669C48.4771 21.0811 50.2613 19.2969 52.4471 19.2969C54.6329 19.2969 56.4171 21.0811 56.4171 23.2669C56.4165 25.4527 54.6323 27.2369 52.4471 27.2369ZM52.4471 19.6927C50.4773 19.6927 48.8723 21.2976 48.8723 23.2675C48.8723 25.2373 50.4773 26.8423 52.4471 26.8423C54.4169 26.8423 56.0219 25.2373 56.0219 23.2675C56.0219 21.2976 54.4169 19.6927 52.4471 19.6927Z" fill="black"/>
<path d="M48.9503 22.0593H47.4954C47.3878 22.0593 47.2979 21.9694 47.2979 21.8617C47.2979 21.754 47.3878 21.6641 47.4954 21.6641H48.9503C49.058 21.6641 49.148 21.754 49.148 21.8617C49.148 21.9694 49.058 22.0593 48.9503 22.0593Z" fill="black"/>
<path d="M55.7888 21.722C55.7407 21.722 55.6868 21.7043 55.6507 21.6619C55.5728 21.584 55.5728 21.4585 55.6507 21.3864L58.6625 18.3987C58.7341 18.315 58.8658 18.315 58.938 18.3987C59.0159 18.4766 59.0159 18.602 58.938 18.6742L55.9262 21.6619C55.8907 21.7037 55.8363 21.722 55.7888 21.722Z" fill="black"/>
<path d="M40.76 21.5428C40.7119 21.5428 40.6643 21.525 40.6282 21.489L39.2088 20.1715C39.1252 20.0999 39.1252 19.9739 39.1968 19.896C39.2684 19.8244 39.3944 19.8124 39.4723 19.884L40.8917 21.2014C40.9753 21.2736 40.9753 21.399 40.9037 21.4769C40.8676 21.5187 40.8138 21.5428 40.76 21.5428Z" fill="black"/>
<path d="M91.4014 89.8672H7.396V92.7197H91.4014V89.8672Z" fill="#AFCAF5"/>
</svg>
