<svg width="97" height="93" viewBox="0 0 97 93" fill="none" xmlns="http://www.w3.org/2000/svg">
<path d="M18.4663 86.7441H78.5192C89.7167 77.8732 96.923 64.1846 96.923 48.7896C96.923 22.0425 75.2399 0.359375 48.4928 0.359375C21.7456 0.359375 0.0625 22.0425 0.0625 48.7896C0.0625 64.1846 7.2688 77.8732 18.4663 86.7441Z" fill="#AFCAF5"/>
<path d="M91.3971 82.1051C89.2073 61.3608 83.1987 48.7084 70.5463 45.4744C58.8315 42.4798 48.5544 40.6641 48.5544 40.6641L48.4931 40.6778L48.4318 40.6641C48.4318 40.6641 38.1548 42.4798 26.4406 45.4744C13.7881 48.7084 7.77953 61.3608 5.58974 82.1051L4.86572 86.747H92.1211L91.3971 82.1051Z" fill="#275070"/>
<path d="M58.2479 25.5078C58.2479 25.5078 58.5715 31.9357 55.9567 34.1834L55.0918 26.4398L58.2479 25.5078Z" fill="#3D2B2C"/>
<path d="M38.6055 25.8359C38.6055 25.8359 37.1764 31.9379 39.7918 34.185L40.6567 26.4414L38.6055 25.8359Z" fill="#3D2B2C"/>
<path d="M56.9212 20.2105C53.6906 26.5862 55.7996 27.6516 48.6552 27.8808C41.5113 28.1093 43.5052 26.6544 38.6605 21.399C36.603 19.1668 35.3303 9.7501 41.029 8.0386C44.3243 7.04881 42.4381 4.58523 46.663 4.97015C60.3688 6.21769 58.8435 16.4163 56.9212 20.2105Z" fill="#3D2B2C"/>
<path d="M40.4438 29.9382C39.4351 36.2973 38.1578 42.4829 36.8599 47.1856C36.8599 47.1856 37.6721 58.1924 48.7533 57.729C54.4544 57.4907 60.9258 52.9548 59.3254 46.083C58.6461 43.1657 57.115 37.251 55.8904 28.7422L40.4438 29.9382Z" fill="#E57281"/>
<path d="M38.1553 42.4835C39.5661 42.8513 42.0377 42.574 42.0377 42.5815C54.2926 40.131 55.4233 31.6909 55.9548 29.1506C55.9336 29.0045 55.9102 28.89 55.8884 28.7422L40.4413 29.9382C40.4436 30.051 40.3605 30.5299 40.2431 31.1542C39.6411 34.8505 38.8667 39.1917 38.1553 42.4835Z" fill="#3D2B2C"/>
<path d="M49.247 11.4662C39.3211 9.1263 39.1579 19.3192 39.1579 19.3192C39.1579 19.3192 37.6732 28.6889 40.6265 33.6138C40.8642 34.0107 41.1094 34.3808 41.3585 34.725C43.8794 38.2087 48.6525 38.8279 51.9901 36.1169C52.3281 35.8425 52.6678 35.5412 53.0086 35.2113C57.147 31.2012 58.1551 21.7701 58.1551 21.7701C58.1551 21.7701 59.4491 11.7233 49.247 11.4662Z" fill="#E57281"/>
<path d="M41.1786 17.2015C48.9817 22.2117 46.1917 16.8704 46.6648 15.5158C48.4954 10.2719 57.5072 21.2735 58.6167 19.2132C61.2178 14.3834 56.0443 10.8005 56.0443 10.8005L43.3707 9.16406C43.3707 9.16406 36.7698 14.3713 41.1786 17.2015Z" fill="#3D2B2C"/>
<path d="M47.832 30.5571C46.2574 30.5571 45.0717 29.3359 45.0179 29.2815C44.9463 29.2036 44.9462 29.0782 45.0236 29.0003C45.1135 28.9224 45.2269 28.9401 45.3048 29.006C45.3169 29.018 46.4246 30.1619 47.8314 30.1619C47.8612 30.1619 47.8916 30.1619 47.9213 30.1619C48.7599 30.1321 49.5498 29.6888 50.2566 28.8445C50.3162 28.7608 50.4542 28.7488 50.5321 28.8204C50.6158 28.8863 50.6278 29.0123 50.5562 29.0959C49.772 30.0301 48.8916 30.521 47.9276 30.5508C47.8979 30.5508 47.8618 30.5571 47.832 30.5571Z" fill="black"/>
<path d="M43.6359 23.4495C43.6439 24.1283 43.3993 24.6821 43.0894 24.6856C42.7796 24.689 42.5218 24.142 42.5144 23.4627C42.5063 22.7839 42.7509 22.23 43.0608 22.2266C43.3701 22.2231 43.6279 22.7707 43.6359 23.4495Z" fill="#3B261C"/>
<path d="M51.9177 23.1797C51.9252 23.8172 51.6955 24.3373 51.4051 24.3408C51.1141 24.3442 50.8724 23.8298 50.8649 23.1923C50.8575 22.5548 51.0872 22.0347 51.3781 22.0313C51.668 22.0278 51.9103 22.5416 51.9177 23.1797Z" fill="#3B261C"/>
<path d="M44.5901 21.9418C44.5242 21.9418 44.4526 21.9057 44.4165 21.8398C44.0511 21.1811 43.6261 20.8277 43.1592 20.7859C43.1295 20.7859 43.0991 20.7859 43.0693 20.7859C42.3029 20.7859 41.6442 21.582 41.6322 21.5941C41.5663 21.672 41.4403 21.6897 41.3567 21.6181C41.273 21.5523 41.261 21.4262 41.3326 21.3426C41.3624 21.3065 42.1168 20.3906 43.0693 20.3906C43.1111 20.3906 43.1529 20.3906 43.1953 20.3964C43.8002 20.4502 44.3272 20.8695 44.7642 21.6479C44.8123 21.7436 44.782 21.8633 44.6863 21.9171C44.6559 21.9297 44.6204 21.9418 44.5901 21.9418Z" fill="black"/>
<path d="M52.9089 21.723C52.8431 21.723 52.7715 21.6869 52.7354 21.621C52.3699 20.9623 51.9449 20.6089 51.4781 20.5671C50.6699 20.5253 49.963 21.3633 49.951 21.3753C49.8851 21.4589 49.7591 21.4652 49.6755 21.3994C49.5919 21.3335 49.5799 21.2075 49.6515 21.1239C49.6812 21.0878 50.4356 20.1719 51.3882 20.1719C51.43 20.1719 51.4718 20.1719 51.5136 20.1776C52.1185 20.2315 52.6454 20.6507 53.0825 21.4292C53.1306 21.5248 53.1003 21.6445 53.0046 21.6984C52.9748 21.711 52.9387 21.723 52.9089 21.723Z" fill="black"/>
<path d="M56.4127 21.6088C56.4127 21.6088 56.671 18.0844 58.5246 18.4665C60.3781 18.8485 61.931 25.4723 57.4861 26.056C53.0412 26.6397 56.4127 21.6088 56.4127 21.6088Z" fill="#E57281"/>
<path d="M58.4295 24.7744C58.3757 24.7744 58.3218 24.7744 58.2617 24.7624C57.8842 24.6965 57.4294 24.4033 57.3154 23.984C57.2673 23.8041 57.2496 23.4513 57.6626 23.1099C57.914 22.9065 58.2732 22.6551 58.5069 22.8103C58.7583 22.9718 58.6627 23.4209 58.6386 23.5051C58.6145 23.5887 58.5309 23.6191 58.453 23.6191C58.3694 23.595 58.3213 23.5114 58.339 23.4335C58.3808 23.272 58.3751 23.0984 58.3448 23.0681C58.3505 23.0681 58.225 23.0503 57.8539 23.3493C57.6442 23.5229 57.5606 23.7085 57.6081 23.9003C57.6797 24.1575 57.9856 24.4033 58.315 24.4571C58.429 24.4812 58.6443 24.4811 58.752 24.3253C59.1593 23.7205 59.279 21.4809 58.4467 20.5048C58.2789 20.3072 58.1655 20.3313 58.1116 20.3313C57.7164 20.4212 57.2971 21.4631 57.1299 22.0978C57.1121 22.1636 57.0462 22.2117 56.9804 22.2117C56.9683 22.2117 56.9563 22.206 56.9385 22.206C56.8606 22.182 56.8131 22.0983 56.8309 22.0141C56.8847 21.8286 57.3458 20.1938 58.0463 20.0323C58.2141 20.0082 58.4353 20.0145 58.6753 20.3015C59.6095 21.3915 59.4657 23.8161 59.0046 24.4932C58.8849 24.6788 58.6753 24.7744 58.4295 24.7744Z" fill="black"/>
<path d="M38.9152 22.1668C38.9152 22.1668 38.4317 18.6665 36.6063 19.166C34.7808 19.6655 33.6552 26.3757 38.1282 26.6736C42.6017 26.9714 38.9152 22.1668 38.9152 22.1668Z" fill="#E57281"/>
<path d="M37.0459 25.4566C36.8242 25.4566 36.6387 25.373 36.5132 25.2109C36.0103 24.5585 35.7107 22.151 36.5733 21.0072C36.795 20.7076 37.0345 20.6658 37.1839 20.6956C37.8965 20.8096 38.4596 22.4082 38.5191 22.5938C38.5489 22.6717 38.5071 22.7616 38.4235 22.7857C38.3754 22.8155 38.2557 22.7737 38.2316 22.69C38.0162 22.0674 37.5368 21.0616 37.1358 20.9957C37.106 20.9957 36.98 20.9659 36.8185 21.187C36.0458 22.2169 36.3093 24.4445 36.7526 25.019C36.8787 25.1805 37.094 25.1508 37.2017 25.133C37.519 25.0551 37.8123 24.7916 37.8662 24.5281C37.9022 24.3362 37.8123 24.1507 37.5849 23.9891C37.2017 23.7079 37.0757 23.7377 37.0757 23.7434C37.0459 23.7732 37.0516 23.9467 37.0997 24.1025C37.1295 24.1862 37.082 24.2704 37.0041 24.2944C36.9205 24.3242 36.8363 24.2824 36.8122 24.1988C36.7824 24.1088 36.6564 23.6718 36.8958 23.4919C37.1353 23.3184 37.5007 23.5521 37.7642 23.7377C38.2012 24.055 38.2012 24.4084 38.1651 24.5877C38.0752 25.019 37.6382 25.3421 37.267 25.4263C37.1897 25.4452 37.1175 25.4566 37.0459 25.4566Z" fill="black"/>
<path d="M46.6621 26.7545C46.6203 26.7722 46.5665 26.7127 46.5722 26.6525C46.602 26.3232 46.9193 23.4071 47.6857 23.1797C47.7338 23.1797 47.7877 23.1974 47.7997 23.2456C47.8117 23.2937 47.7877 23.3412 47.7338 23.3595C47.2487 23.5033 46.8775 25.4674 46.7515 26.6766C46.7463 26.719 46.7102 26.7545 46.6621 26.7545Z" fill="black"/>
<path d="M37.2705 48.7891C37.2705 48.7891 38.7214 57.6536 45.1584 65.3943C51.5955 73.1351 59.5694 48.7891 59.5694 48.7891H37.2705Z" fill="#E57281"/>
<path d="M73.3862 74.0905H59.5721C59.4644 74.0905 59.3745 74.0006 59.3745 73.8929C59.3745 73.7852 59.4644 73.6953 59.5721 73.6953H73.3862C73.4939 73.6953 73.5838 73.7852 73.5838 73.8929C73.5838 74.0006 73.4939 74.0905 73.3862 74.0905Z" fill="black"/>
<path d="M59.5721 86.9445C59.4644 86.9445 59.3745 86.8546 59.3745 86.7469V75.3461C59.3745 75.2384 59.4644 75.1484 59.5721 75.1484H73.3862C73.4939 75.1484 73.5838 75.2384 73.5838 75.3461V86.4176C73.5838 86.5253 73.4939 86.6152 73.3862 86.6152C73.2785 86.6152 73.1886 86.5253 73.1886 86.4176V75.5437H59.7697V86.7469C59.7697 86.8546 59.6798 86.9445 59.5721 86.9445Z" fill="black"/>
<path d="M71.4341 77.6452H59.5721C59.4644 77.6452 59.3745 77.5553 59.3745 77.4476C59.3745 77.3399 59.4644 77.25 59.5721 77.25H71.4341C71.5418 77.25 71.6317 77.3399 71.6317 77.4476C71.6317 77.5553 71.5418 77.6452 71.4341 77.6452Z" fill="black"/>
<path d="M8.28008 86.9464C8.20848 86.9464 8.1426 86.9046 8.10652 86.8387C8.04637 86.7247 6.66365 83.7731 11.4597 65.1029C15.8129 48.1453 37.0337 44.8879 37.2434 44.8581C37.3453 44.8042 37.453 44.9119 37.4651 45.0196C37.4828 45.1273 37.4112 45.2292 37.3035 45.2413C37.0882 45.2774 16.1302 48.4987 11.8434 65.1985C7.13106 83.5451 8.40036 86.5454 8.4542 86.6588C8.50231 86.7608 8.45994 86.8742 8.36428 86.9223C8.33965 86.9344 8.30986 86.9464 8.28008 86.9464Z" fill="black"/>
<path d="M88.3381 86.9443C88.3083 86.9443 88.278 86.9386 88.2482 86.9202C88.1525 86.8721 88.1164 86.7524 88.1646 86.6568C88.2184 86.5428 89.4877 83.543 84.7816 65.1965C80.4943 48.4961 59.5306 45.2747 59.3152 45.2392C59.2076 45.2272 59.1354 45.1252 59.1537 45.0175C59.1658 44.9098 59.2557 44.8079 59.3754 44.856C59.585 44.8858 80.8116 48.1433 85.1648 65.1008C89.9551 83.771 88.5718 86.7232 88.5122 86.8366C88.4756 86.9025 88.4097 86.9443 88.3381 86.9443Z" fill="black"/>
<path d="M90.4961 89.8672H6.49072V92.7197H90.4961V89.8672Z" fill="#AFCAF5"/>
</svg>
