<svg width="98" height="94" viewBox="0 0 98 94" fill="none" xmlns="http://www.w3.org/2000/svg">
<path d="M21.2268 87.7715H77.5703C89.82 78.9831 97.8288 64.6569 97.8288 48.4303C97.8288 21.6831 76.1457 0 49.3985 0C22.6514 0 0.968262 21.6825 0.968262 48.4303C0.968262 64.6575 8.97707 78.9837 21.2268 87.7715Z" fill="#FEDE02"/>
<path d="M70.0694 42.79C59.9 37.5523 73.1316 18.2194 55.2186 11.6002C53.6142 11.0074 49.4637 10.1453 45.4868 10.8911C25.5702 14.6269 35.0408 37.152 31.0055 40.7233C26.2685 44.915 33.5527 53.4428 49.4334 53.429C65.3135 53.4422 75.1902 45.4271 70.0694 42.79Z" fill="#3D2B2C"/>
<path d="M92.2405 87.5781C92.6208 79.2777 84.0335 55.3183 70.4663 55.3183L49.3978 51.1719L28.3293 55.3183C14.7621 55.3183 6.17477 79.2777 6.55511 87.5781H6.5471H49.3972H92.2473H92.2405Z" fill="#AB6B51"/>
<path d="M13.1389 66.8906C13.1046 66.8906 13.0771 66.9095 13.0433 66.9101C11.4389 69.6395 10.1054 72.5659 9.07324 75.4195C10.0235 76.6401 11.4664 77.4466 13.1395 77.4466C16.0544 77.4466 18.4172 75.0839 18.4172 72.1689C18.4167 69.254 16.0539 66.8906 13.1389 66.8906Z" fill="#D0B49F"/>
<path d="M64.3729 63.7788C66.4339 61.7177 66.4339 58.3761 64.3729 56.315C62.3118 54.254 58.9702 54.2539 56.9091 56.315C54.8481 58.3761 54.8481 61.7177 56.9091 63.7788C58.9702 65.8398 62.3118 65.8398 64.3729 63.7788Z" fill="#D0B49F"/>
<path d="M41.9315 65.3289C44.8465 65.3289 47.2092 62.9661 47.2092 60.0512C47.2092 57.1362 44.8465 54.7734 41.9315 54.7734C39.0171 54.7734 36.6538 57.1362 36.6538 60.0512C36.6538 62.9661 39.0171 65.3289 41.9315 65.3289Z" fill="#D0B49F"/>
<path d="M23.2206 65.3225C26.135 65.3225 28.4983 62.9597 28.4983 60.0448C28.4983 58.1127 27.4072 56.4957 25.8572 55.5781C22.9537 56.2122 20.3303 57.9667 17.999 60.3203C18.1497 63.1001 20.403 65.3225 23.2206 65.3225Z" fill="#D0B49F"/>
<path d="M31.851 66.8906C28.936 66.8906 26.5732 69.2534 26.5732 72.1683C26.5732 75.0833 28.936 77.4461 31.851 77.4461C34.7653 77.4461 37.1287 75.0833 37.1287 72.1683C37.1287 69.254 34.7653 66.8906 31.851 66.8906Z" fill="#D0B49F"/>
<path d="M70.4839 77.2872C73.32 76.6148 75.074 73.7706 74.4016 70.9345C73.7291 68.0983 70.8849 66.3444 68.0488 67.0168C65.2127 67.6893 63.4587 70.5335 64.1311 73.3696C64.8036 76.2057 67.6478 77.9597 70.4839 77.2872Z" fill="#D0B49F"/>
<path d="M50.5619 66.8906C47.6476 66.8906 45.2842 69.2534 45.2842 72.1683C45.2842 75.0833 47.647 77.4461 50.5619 77.4461C53.4769 77.4461 55.8396 75.0833 55.8396 72.1683C55.8396 69.254 53.4769 66.8906 50.5619 66.8906Z" fill="#D0B49F"/>
<path d="M79.3558 80.5234C76.4409 80.5234 74.0781 82.8862 74.0781 85.8012C74.0781 86.4301 74.2339 87.0155 74.4361 87.5745H84.2761C84.4777 87.0155 84.6341 86.4307 84.6341 85.8012C84.6335 82.8862 82.2708 80.5234 79.3558 80.5234Z" fill="#D0B49F"/>
<path d="M41.9315 80.5234C39.0171 80.5234 36.6538 82.8862 36.6538 85.8012C36.6538 86.4301 36.8096 87.0155 37.0118 87.5745H46.8518C47.0535 87.0155 47.2098 86.4307 47.2098 85.8012C47.2098 82.8862 44.8465 80.5234 41.9315 80.5234Z" fill="#D0B49F"/>
<path d="M60.6449 80.5234C57.73 80.5234 55.3672 82.8862 55.3672 85.8012C55.3672 86.4301 55.5236 87.0155 55.7252 87.5745H65.5658C65.7674 87.0155 65.9238 86.4307 65.9238 85.8012C65.9226 82.8862 63.5598 80.5234 60.6449 80.5234Z" fill="#D0B49F"/>
<path d="M23.2206 80.5234C20.3056 80.5234 17.9429 82.8862 17.9429 85.8012C17.9429 86.4301 18.0987 87.0155 18.3009 87.5745H28.1409C28.3425 87.0155 28.4989 86.4307 28.4989 85.8012C28.4977 82.8862 26.1349 80.5234 23.2206 80.5234Z" fill="#D0B49F"/>
<path d="M7.29283 81.3828C6.74066 83.8309 6.48175 85.9881 6.5545 87.5713H9.42878C9.6304 87.0122 9.78678 86.4274 9.78678 85.7979C9.78678 83.9197 8.77178 82.3176 7.29283 81.3828Z" fill="#D0B49F"/>
<path d="M79.3564 65.3245C81.0187 65.3245 82.4432 64.514 83.398 63.3048C81.1418 60.2937 78.4978 57.8392 75.5336 56.4766C74.6532 57.4194 74.0781 58.6549 74.0781 60.0462C74.0787 62.9617 76.4415 65.3245 79.3564 65.3245Z" fill="#D0B49F"/>
<path d="M87.9844 77.4391C88.8075 77.4391 89.5389 77.179 90.2205 76.8268C89.193 73.7199 87.7844 70.4562 86.0506 67.4141C84.1157 68.1787 82.7061 69.9504 82.7061 72.1608C82.7066 75.0763 85.0694 77.4391 87.9844 77.4391Z" fill="#D0B49F"/>
<path d="M65.9219 52.0079C65.9219 51.1115 65.7959 50.2483 65.6584 49.3902C65.4299 49.3753 65.2088 49.3318 64.9757 49.3318L49.398 46.2656L33.8203 49.3318C33.5871 49.3318 33.3666 49.3759 33.1375 49.3902C33 50.2483 32.874 51.1109 32.874 52.0079C32.874 61.1342 40.2722 68.5318 49.398 68.5318C58.5237 68.5318 65.9219 61.1342 65.9219 52.0079Z" fill="#AB6B51"/>
<path d="M41.4061 38.4147C40.3974 44.7739 38.7134 53.9804 37.8221 55.6621C37.8221 55.6621 36.8679 67.2835 49.7156 66.2055C55.4017 65.7284 61.888 61.4313 60.2877 54.5595C59.6083 51.6423 58.0772 45.7276 56.8526 37.2188L41.4061 38.4147Z" fill="#E57281"/>
<path d="M38.3486 54.1368C38.348 54.1482 38.3389 54.1986 38.3389 54.2078C52.9405 48.5188 56.391 40.1675 56.9226 37.6272C56.9014 37.4811 56.8779 37.3665 56.8561 37.2188L41.409 38.4147C41.4113 38.5282 41.3277 39.0099 41.2097 39.6377C40.3757 44.7619 39.2083 51.105 38.3486 54.1368Z" fill="#3D2B2C"/>
<path d="M50.546 19.9967C40.7003 17.3406 40.2106 27.5226 40.2106 27.5226C40.2106 27.5226 38.4263 36.8403 41.221 41.8574C41.4461 42.2618 41.6786 42.6392 41.9169 42.9915C44.3249 46.5543 49.0757 47.3258 52.4987 44.723C52.8447 44.4596 53.1946 44.1697 53.5458 43.8507C57.8102 39.9752 59.1202 30.5813 59.1202 30.5813C59.1202 30.5813 60.7349 20.5804 50.546 19.9967Z" fill="#E57281"/>
<path d="M45.1252 25.6975C45.1252 25.6975 50.392 25.6402 51.7794 25.7599C59.4009 26.4198 58.3974 33.6731 59.5968 31.6637C62.0644 27.5287 53.3041 16.1484 53.3041 16.1484L44.7466 17.5168C44.7466 17.5168 41.7583 21.6839 45.1252 25.6975Z" fill="#3D2B2C"/>
<path d="M48.8727 39.0343C48.3337 39.0343 47.9689 38.9267 47.9568 38.9204C47.8549 38.8906 47.7953 38.7766 47.8314 38.6746C47.8612 38.5727 47.9872 38.5251 48.0771 38.5492C48.1848 38.5853 50.5384 39.2795 51.9395 36.6389C51.9876 36.5433 52.089 36.4831 52.203 36.5553C52.2986 36.6091 52.3347 36.7231 52.2866 36.8188C51.2917 38.693 49.8127 39.0343 48.8727 39.0343Z" fill="black"/>
<path d="M44.7237 31.4439C44.7099 32.1226 44.4476 32.6679 44.1383 32.6616C43.8284 32.6553 43.5884 32.0997 43.6021 31.4209C43.6159 30.7422 43.8782 30.1969 44.1875 30.2032C44.4974 30.2095 44.7374 30.7645 44.7237 31.4439Z" fill="#3B261C"/>
<path d="M53.0085 31.4385C52.9953 32.0761 52.7495 32.5881 52.4586 32.5824C52.1676 32.5767 51.9425 32.0549 51.9551 31.4174C51.9683 30.7798 52.214 30.2678 52.505 30.2735C52.7959 30.2792 53.0216 30.8005 53.0085 31.4385Z" fill="#3B261C"/>
<path d="M45.7127 29.7132C45.6411 29.7132 45.5753 29.6714 45.5392 29.6055C45.1921 28.9348 44.7785 28.5693 44.3117 28.5098C44.2699 28.504 44.2281 28.504 44.1857 28.504C43.4313 28.504 42.7669 29.2584 42.7606 29.2647C42.689 29.3604 42.563 29.3546 42.4851 29.2888C42.4015 29.2166 42.3894 29.0911 42.461 29.0132C42.4971 28.9714 43.2515 28.1094 44.1857 28.1094C44.2395 28.1094 44.2997 28.1151 44.3592 28.1214C44.9641 28.193 45.4791 28.6306 45.8863 29.4268C45.9344 29.5225 45.8984 29.6422 45.8027 29.6903C45.7729 29.7069 45.7425 29.7132 45.7127 29.7132Z" fill="black"/>
<path d="M54.0297 29.7549C53.9581 29.7549 53.8923 29.7131 53.8562 29.6472C53.5091 28.9765 53.0955 28.611 52.6287 28.5572C52.5869 28.5515 52.545 28.5452 52.5026 28.5452C51.7483 28.5452 51.0896 29.2995 51.0838 29.3058C51.0059 29.4015 50.8862 29.3958 50.8083 29.3299C50.7247 29.2583 50.7127 29.1323 50.7843 29.0544C50.8203 29.0126 51.5747 28.1562 52.5026 28.1562C52.5628 28.1562 52.6166 28.1563 52.6762 28.162C53.2811 28.2342 53.796 28.6769 54.2033 29.4674C54.2514 29.563 54.2153 29.6827 54.1196 29.7309C54.0898 29.7492 54.0601 29.7549 54.0297 29.7549Z" fill="black"/>
<path d="M57.3821 30.3691C57.3821 30.3691 57.7533 26.8551 59.5936 27.2961C61.434 27.7372 62.7744 34.4073 58.3129 34.8484C53.8514 35.2894 57.3821 30.3691 57.3821 30.3691Z" fill="#E57281"/>
<path d="M59.327 33.5961C59.2612 33.5961 59.1953 33.5903 59.1294 33.5783C58.7582 33.5004 58.3092 33.1951 58.2072 32.7701C58.1654 32.5845 58.1591 32.2311 58.5784 31.908C58.8361 31.7167 59.189 31.483 59.4404 31.6325C59.6862 31.8004 59.5722 32.2431 59.5481 32.3331C59.5183 32.411 59.4462 32.4407 59.3563 32.4407C59.2726 32.4167 59.2308 32.3331 59.2486 32.2489C59.2967 32.0873 59.2967 31.9138 59.2663 31.8834C59.2606 31.8777 59.1289 31.8714 58.7691 32.1469C58.5475 32.3205 58.4575 32.5003 58.5056 32.6979C58.5652 32.9557 58.8648 33.2129 59.1884 33.2787C59.2961 33.2908 59.5115 33.3085 59.6318 33.1533C60.0631 32.5605 60.2487 30.3271 59.4462 29.327C59.2847 29.1174 59.1707 29.1174 59.1168 29.1472C58.7216 29.2188 58.2725 30.2492 58.087 30.8719C58.0629 30.9377 58.0033 30.9858 57.9374 30.9858C57.9254 30.9858 57.9076 30.9801 57.8956 30.9801C57.812 30.9503 57.7639 30.8661 57.7879 30.7888C57.8475 30.6032 58.3567 28.9805 59.0635 28.8425C59.2073 28.8006 59.4468 28.8367 59.6862 29.1357C60.5843 30.2492 60.3626 32.6624 59.8838 33.3332C59.7583 33.5061 59.5607 33.5961 59.327 33.5961Z" fill="black"/>
<path d="M39.8754 30.3691C39.8754 30.3691 39.5042 26.8551 37.6638 27.2961C35.8234 27.7372 34.4831 34.4073 38.9446 34.8484C43.4061 35.2894 39.8754 30.3691 39.8754 30.3691Z" fill="#E57281"/>
<path d="M37.9344 33.5938C37.7007 33.5938 37.5031 33.5039 37.3777 33.3303C36.8925 32.6659 36.6708 30.2527 37.5695 29.1329C37.809 28.8396 38.0364 28.8036 38.1922 28.8396C38.9047 28.9771 39.4139 30.5998 39.4678 30.786C39.4976 30.8639 39.45 30.9475 39.3658 30.9716C39.2822 31.0077 39.198 30.9475 39.1802 30.8696C38.9883 30.247 38.5336 29.2171 38.1383 29.1449C38.0902 29.1088 37.9705 29.1151 37.809 29.3248C37.0065 30.3306 37.1983 32.5645 37.6291 33.1511C37.7431 33.3069 37.9521 33.2948 38.0661 33.2765C38.3898 33.2106 38.6888 32.9592 38.7489 32.6957C38.797 32.5044 38.7071 32.3182 38.4854 32.1447C38.132 31.8691 37.9945 31.8754 37.9882 31.8812C37.9585 31.911 37.9585 32.0845 38.006 32.2466C38.0238 32.3302 37.9819 32.4144 37.8983 32.4385C37.8204 32.4328 37.7368 32.4087 37.7064 32.3308C37.6824 32.2409 37.569 31.7981 37.8141 31.6303C38.0776 31.4808 38.419 31.7139 38.6762 31.9058C39.1012 32.2352 39.0891 32.5886 39.0473 32.7679C38.9454 33.1929 38.4963 33.5045 38.1251 33.5761C38.0598 33.5881 37.994 33.5938 37.9344 33.5938Z" fill="black"/>
<path d="M47.8425 35.2311C47.8425 35.2311 47.8368 35.2311 47.8305 35.2311C47.7824 35.2253 47.7468 35.1829 47.7526 35.1291C47.7823 34.7997 48.094 31.8836 48.8661 31.6562C48.9142 31.662 48.968 31.674 48.9801 31.7221C48.9921 31.7702 48.9623 31.8178 48.9142 31.8361C48.429 31.9799 48.0521 33.944 47.9324 35.1532C47.9261 35.195 47.8901 35.2311 47.8425 35.2311Z" fill="black"/>
<path d="M43.5227 20.75C43.5227 20.75 42.3284 27.9598 39.7222 29.5447C39.7222 29.5447 40.2761 21.1395 43.5227 20.75Z" fill="#3D2B2C"/>
<path d="M49.3975 68.732C43.5624 68.732 39.1553 67.1574 36.2959 64.0558C32.4187 59.852 32.826 54.2478 32.8317 54.1877C32.8374 54.0857 32.9245 54.0078 33.0264 54.0078C33.0322 54.0078 33.0356 54.0078 33.0413 54.0078C33.149 54.0198 33.2298 54.1155 33.2212 54.2232C33.2183 54.277 32.826 59.7203 36.5864 63.7917C39.3707 66.8097 43.6793 68.3362 49.3975 68.3362C49.5052 68.3362 49.5951 68.4262 49.5951 68.5339C49.5951 68.6421 49.5057 68.732 49.3975 68.732Z" fill="#FDF0E0"/>
<path d="M49.3964 68.7346C49.2887 68.7346 49.1987 68.6446 49.1987 68.537C49.1987 68.4293 49.2887 68.3393 49.3964 68.3393C63.6475 68.3393 65.5577 54.3277 65.5755 54.1839C65.5875 54.0762 65.6895 53.992 65.7943 54.0103C65.902 54.0281 65.977 54.1243 65.965 54.232C65.9466 54.3758 63.998 68.7346 49.3964 68.7346Z" fill="#FDF0E0"/>
<path d="M55.0695 75.0899C54.9619 75.0899 54.8719 74.9999 54.8719 74.8922C54.8719 71.09 47.6387 68.6408 47.5637 68.6167C47.4617 68.5806 47.405 68.4729 47.4411 68.371C47.4709 68.2633 47.5791 68.2095 47.6897 68.2455C47.9978 68.3475 55.2672 70.8082 55.2672 74.8922C55.2672 74.9999 55.1772 75.0899 55.0695 75.0899Z" fill="#FDF0E0"/>
<path d="M44.9637 75.0947C44.8561 75.0947 44.7661 75.0047 44.7661 74.8971C44.7661 70.813 52.0354 68.3523 52.3436 68.2504C52.4484 68.2206 52.559 68.2744 52.5922 68.3758C52.6283 68.4778 52.571 68.5855 52.4696 68.6215C52.3946 68.6456 45.1613 71.0943 45.1613 74.8971C45.1613 75.0047 45.0714 75.0947 44.9637 75.0947Z" fill="#FDF0E0"/>
<path d="M91.4018 90.7969H7.39648V93.6494H91.4018V90.7969Z" fill="#FEDE02"/>
</svg>
