<svg width="97" height="94" viewBox="0 0 97 94" fill="none" xmlns="http://www.w3.org/2000/svg">
<path d="M19.9979 87.5761H76.8632C88.9634 78.7712 96.8605 64.5395 96.8605 48.4303C96.8605 21.6831 75.178 0 48.4303 0C21.6825 0 0 21.6825 0 48.4303C0 64.5395 7.89768 78.7712 19.9979 87.5761Z" fill="#FEDE02"/>
<path d="M91.2727 87.5713C91.6438 79.464 83.446 56.2303 70.4218 55.3906C70.608 56.5505 70.7787 57.7179 70.7787 58.9305C70.7787 71.2736 60.7731 81.2786 48.4305 81.2786C44.5058 81.2786 40.8725 80.1788 37.6666 78.402C36.9575 80.2098 36.4414 82.1315 36.4414 84.2096V87.5713H91.2738H91.2727Z" fill="#D0B49F"/>
<path d="M37.1263 78.1088C30.5449 74.2201 26.0823 67.1295 26.0823 58.9305C26.0823 57.7179 26.2529 56.5505 26.4391 55.3906C13.4149 56.2298 5.2171 79.4634 5.58827 87.5713H5.58712H35.8306V84.2096C35.8306 82.0215 36.3748 80.0013 37.1263 78.1088Z" fill="#D0B49F"/>
<path d="M37.1253 78.1083C39.9909 70.8911 46.8278 66.0808 46.916 66.0241L47.2631 66.527C47.1749 66.5888 40.436 71.335 37.6654 78.4015C40.8713 80.1784 44.5046 81.2781 48.4293 81.2781C60.7719 81.2781 70.7775 71.2726 70.7775 58.93C70.7775 57.7174 70.6068 56.55 70.4206 55.3901C70.1113 55.3701 69.8123 55.3105 69.4973 55.3105L48.4288 51.1641L27.3603 55.3105C27.0452 55.3105 26.7462 55.3701 26.4369 55.3901C26.2508 56.55 26.0801 57.7174 26.0801 58.93C26.0812 67.1284 30.5439 74.2196 37.1253 78.1083Z" fill="#FDF0E0"/>
<path d="M37.6674 78.4026C37.4881 78.303 37.3037 78.2131 37.1273 78.1094C36.3758 80.0019 35.8311 82.0221 35.8311 84.2102V87.5719H36.4416V84.2102C36.4422 82.1321 36.9589 80.2104 37.6674 78.4026Z" fill="#FDF0E0"/>
<path d="M47.2639 66.5263L46.9167 66.0234C46.8285 66.0801 39.9922 70.891 37.126 78.1077C37.3024 78.2119 37.4868 78.3013 37.6661 78.4009C40.4367 71.3344 47.1756 66.5882 47.2639 66.5263Z" fill="#D0B49F"/>
<path d="M48.2967 48.4274C58.7269 48.4274 67.1823 39.972 67.1823 29.5418C67.1823 19.1116 58.7269 10.6562 48.2967 10.6562C37.8665 10.6562 29.4111 19.1116 29.4111 29.5418C29.4111 39.972 37.8665 48.4274 48.2967 48.4274Z" fill="#3D2B2C"/>
<path d="M73.4996 48.5226C75.0447 41.9154 70.9411 35.3067 64.3339 33.7617C57.7268 32.2166 51.1181 36.3202 49.573 42.9273C48.0279 49.5345 52.1315 56.1432 58.7387 57.6882C65.3458 59.2333 71.9545 55.1297 73.4996 48.5226Z" fill="#3D2B2C"/>
<path d="M40.4383 38.4147C39.4296 44.7739 37.7456 53.9804 36.8543 55.6621C36.8543 55.6621 35.9001 67.2835 48.7478 66.2055C54.4339 65.7284 60.9203 61.4313 59.3199 54.5595C58.6405 51.6423 57.1095 45.7276 55.8848 37.2188L40.4383 38.4147Z" fill="#E57281"/>
<path d="M37.3774 54.1368C37.3768 54.1482 37.3677 54.1986 37.3677 54.2078C51.9693 48.5188 55.4198 40.1675 55.9514 37.6272C55.9302 37.4811 55.9067 37.3665 55.8849 37.2188L40.4378 38.4147C40.4401 38.5282 40.3565 39.0099 40.2385 39.6377C39.4045 44.7619 38.2372 51.105 37.3774 54.1368Z" fill="#3D2B2C"/>
<path d="M49.5749 19.9967C39.7291 17.3406 39.2394 27.5226 39.2394 27.5226C39.2394 27.5226 37.4551 36.8403 40.2498 41.8574C40.4749 42.2618 40.7074 42.6392 40.9457 42.9915C43.3538 46.5543 48.1051 47.3258 51.5275 44.723C51.8741 44.4596 52.2235 44.1697 52.5746 43.8507C56.839 39.9752 58.149 30.5813 58.149 30.5813C58.149 30.5813 59.7637 20.5804 49.5749 19.9967Z" fill="#E57281"/>
<path d="M40.4633 26.4112C40.4633 26.4112 42.7367 29.4012 49.8496 26.567C56.9563 23.7357 57.4294 33.6736 58.6288 31.6637C61.0964 27.5287 52.3361 16.1484 52.3361 16.1484L43.7786 17.5168C43.7786 17.5168 37.0964 22.3976 40.4633 26.4112Z" fill="#3D2B2C"/>
<path d="M47.1864 39.9339C45.5637 39.9339 44.3723 38.6165 44.3242 38.5626C44.2526 38.479 44.2583 38.3593 44.3362 38.2871C44.4141 38.2092 44.5458 38.2213 44.6117 38.2992C44.6237 38.3112 45.7436 39.5387 47.1864 39.5387H47.1922C48.0307 39.5387 48.8326 39.1194 49.5692 38.2992C49.6351 38.2213 49.7669 38.2092 49.8448 38.2871C49.9227 38.3587 49.9284 38.479 49.8568 38.5626C49.0486 39.4728 48.1504 39.9339 47.1864 39.9339Z" fill="black"/>
<path d="M43.1685 32.0767C43.1547 32.7554 42.8924 33.3007 42.5831 33.2944C42.2732 33.2881 42.0332 32.7325 42.0469 32.0538C42.0607 31.375 42.323 30.8297 42.6323 30.836C42.9422 30.8423 43.1822 31.3979 43.1685 32.0767Z" fill="#3B261C"/>
<path d="M51.4533 32.5323C51.4401 33.1698 51.1944 33.6819 50.9034 33.6762C50.6124 33.6704 50.3873 33.1486 50.3999 32.5111C50.4131 31.8736 50.6588 31.3615 50.9498 31.3672C51.2408 31.373 51.4659 31.8948 51.4533 32.5323Z" fill="#3B261C"/>
<path d="M44.1557 30.346C44.0841 30.346 44.0182 30.3042 43.9821 30.2383C43.635 29.5676 43.2215 29.1964 42.7546 29.1426C42.7128 29.1368 42.671 29.1368 42.6292 29.1368C41.8806 29.1368 41.2161 29.8912 41.2098 29.8975C41.1319 29.9932 41.0122 29.9932 40.9343 29.9216C40.8507 29.8494 40.8386 29.724 40.9102 29.6461C40.9463 29.6042 41.7007 28.7422 42.6286 28.7422C42.6882 28.7422 42.7426 28.7479 42.8022 28.7542C43.4071 28.8258 43.922 29.2634 44.3293 30.0596C44.3774 30.1553 44.3413 30.275 44.2456 30.3231C44.2158 30.3397 44.1855 30.346 44.1557 30.346Z" fill="black"/>
<path d="M52.4711 30.3942C52.3995 30.3942 52.3337 30.3524 52.2976 30.2865C51.9505 29.6158 51.5369 29.2504 51.0701 29.1965C50.2676 29.0705 49.531 29.9388 49.5253 29.9452C49.4474 30.0408 49.3276 30.0351 49.2497 29.9692C49.1661 29.8976 49.1541 29.7716 49.2257 29.6937C49.2618 29.6456 50.1118 28.6695 51.1176 28.8013C51.7225 28.8735 52.2374 29.3162 52.6447 30.1067C52.6928 30.2023 52.6567 30.3221 52.5611 30.3702C52.5313 30.3885 52.5015 30.3942 52.4711 30.3942Z" fill="black"/>
<path d="M56.4126 30.3691C56.4126 30.3691 56.7838 26.8551 58.6241 27.2961C60.4645 27.7372 61.8043 34.4073 57.3434 34.8484C52.8825 35.2894 56.4126 30.3691 56.4126 30.3691Z" fill="#E57281"/>
<path d="M58.3593 33.5961C58.2934 33.5961 58.2275 33.5903 58.1616 33.5783C57.7905 33.5004 57.3414 33.1951 57.2395 32.7701C57.1976 32.5845 57.1913 32.2311 57.6106 31.908C57.8678 31.7167 58.2212 31.483 58.4727 31.6325C58.7184 31.8004 58.6044 32.2431 58.5804 32.3331C58.5563 32.3989 58.4967 32.447 58.4309 32.447C58.4188 32.447 58.4011 32.4413 58.389 32.4413C58.3054 32.4173 58.2636 32.3336 58.2814 32.2494C58.3295 32.0879 58.3295 31.9143 58.2991 31.884C58.2934 31.8783 58.1616 31.872 57.8019 32.1475C57.5803 32.321 57.4903 32.5009 57.5384 32.6985C57.5986 32.9563 57.8976 33.2134 58.2212 33.2793C58.3289 33.2913 58.5443 33.3091 58.6646 33.1539C59.0959 32.561 59.2815 30.3277 58.479 29.3276C58.3174 29.118 58.1977 29.118 58.1496 29.1478C57.7544 29.2194 57.3053 30.2498 57.1197 30.8724C57.09 30.9503 57.0057 30.9801 56.9278 30.9801C56.8442 30.9503 56.7961 30.8661 56.8202 30.7888C56.8797 30.6032 57.3889 28.9805 58.0958 28.8425C58.2453 28.8006 58.479 28.8367 58.7184 29.1357C59.6165 30.2492 59.3949 32.6624 58.916 33.3332C58.7906 33.5061 58.593 33.5961 58.3593 33.5961Z" fill="black"/>
<path d="M38.9066 30.3691C38.9066 30.3691 38.5354 26.8551 36.695 27.2961C34.8547 27.7372 33.5143 34.4073 37.9758 34.8484C42.4373 35.2894 38.9066 30.3691 38.9066 30.3691Z" fill="#E57281"/>
<path d="M36.963 33.5938C36.7293 33.5938 36.5317 33.5039 36.4062 33.3303C35.9211 32.6659 35.7 30.2527 36.5981 29.1329C36.8376 28.8396 37.0713 28.8036 37.2208 28.8396C37.9333 28.9771 38.4425 30.5998 38.4964 30.786C38.5262 30.8639 38.4786 30.9475 38.3944 30.9716C38.3165 31.0077 38.2329 30.9475 38.2088 30.8696C38.0175 30.247 37.5621 29.2171 37.1669 29.1449C37.1549 29.1392 37.1429 29.1392 37.1251 29.1392C37.065 29.1392 36.9636 29.1633 36.8376 29.3248C36.0351 30.3306 36.227 32.5645 36.6577 33.1511C36.7717 33.3069 36.975 33.2948 37.0948 33.2765C37.4178 33.2106 37.7174 32.9592 37.7775 32.6957C37.8256 32.5044 37.7357 32.3182 37.514 32.1447C37.1606 31.8691 37.0232 31.8754 37.0169 31.8812C36.9871 31.911 36.9871 32.0845 37.0346 32.2466C37.0524 32.3302 37.0106 32.4144 36.9269 32.4385C36.837 32.4328 36.7591 32.4087 36.7356 32.3308C36.7115 32.2409 36.5981 31.7981 36.8433 31.6303C37.1068 31.4808 37.4482 31.7139 37.7053 31.9058C38.1304 32.2352 38.1183 32.5886 38.0765 32.7679C37.9746 33.1929 37.5255 33.5045 37.1543 33.5761C37.089 33.5881 37.0231 33.5938 36.963 33.5938Z" fill="black"/>
<path d="M69.1905 65.694C69.7494 62.2369 67.4 58.9813 63.9428 58.4224C60.4857 57.8634 57.2301 60.2129 56.6712 63.67C56.1123 67.1271 58.4617 70.3828 61.9188 70.9417C65.376 71.5006 68.6316 69.1511 69.1905 65.694Z" fill="#3D2B2C"/>
<path d="M64.6402 60.4376C69.4382 60.4376 73.3278 56.5481 73.3278 51.7501C73.3278 46.9521 69.4382 43.0625 64.6402 43.0625C59.8422 43.0625 55.9526 46.9521 55.9526 51.7501C55.9526 56.5481 59.8422 60.4376 64.6402 60.4376Z" fill="#3D2B2C"/>
<path d="M46.1384 35.2311C46.1384 35.2311 46.1327 35.2311 46.1264 35.2311C46.0782 35.2253 46.0427 35.1829 46.0485 35.1291C46.0782 34.7997 46.3898 31.8836 47.162 31.6562C47.1677 31.6562 47.1797 31.6562 47.186 31.6562C47.2278 31.6562 47.2639 31.6803 47.276 31.7221C47.288 31.7702 47.2582 31.8178 47.2101 31.8361C46.7249 31.9799 46.348 33.944 46.2283 35.1532C46.2226 35.195 46.1865 35.2311 46.1384 35.2311Z" fill="black"/>
<path d="M90.4321 90.7969H6.42676V93.6494H90.4321V90.7969Z" fill="#FEDE02"/>
</svg>
