<svg width="97" height="93" viewBox="0 0 97 93" fill="none" xmlns="http://www.w3.org/2000/svg">
<path d="M18.4044 86.7447H78.4561C89.6536 77.8738 96.8605 64.1852 96.8605 48.7896C96.8605 22.0425 75.178 0.359375 48.4303 0.359375C21.6825 0.359375 0 22.0425 0 48.7896C0 64.1846 7.20632 77.8738 18.4044 86.7447Z" fill="#AFCAF5"/>
<path d="M70.4228 45.4666C70.1135 45.4437 69.8145 45.3761 69.4994 45.3761L48.4309 40.6562C48.4309 40.6562 26.749 45.4437 26.4391 45.4666C13.4149 46.422 5.2171 72.8684 5.58827 82.0973L5.57624 86.7392H91.2851L91.273 82.0973C91.6448 72.8684 83.4464 46.422 70.4228 45.4666Z" fill="#3D2B2C"/>
<path d="M68.179 45.0811L48.4291 40.6562C48.4291 40.6562 34.2015 43.798 28.6345 45.0032C28.6316 45.0141 28.6322 45.0118 28.6299 45.0227L48.4291 68.4201L68.179 45.0811Z" fill="#297B77"/>
<path d="M58.244 25.5C58.244 25.5 57.9942 29.1831 55.8509 29.698L55.0879 26.4319L58.244 25.5Z" fill="#3D2B2C"/>
<path d="M56.9185 20.2051C54.9618 27.0798 55.7969 27.6463 48.6525 27.8754C41.5086 28.1039 43.5025 26.649 38.6578 21.3936C36.6003 19.1615 36.291 9.28936 41.4788 6.37499C44.5879 4.62797 62.3222 1.21812 56.9185 20.2051Z" fill="#3D2B2C"/>
<path d="M40.4394 29.9304C39.4308 36.2895 38.1534 42.4751 36.8555 47.1778C36.8555 47.1778 37.6677 58.1846 48.749 57.7212C54.45 57.4829 60.9214 52.9469 59.321 46.0751C58.6417 43.1579 57.1106 37.2432 55.886 28.7344L40.4394 29.9304Z" fill="#F5BCAE"/>
<path d="M38.1553 42.4757C39.5661 42.8434 42.0377 42.5662 42.0377 42.5736C54.2926 40.1232 55.4233 31.6831 55.9548 29.1428C55.9336 28.9967 55.9102 28.8822 55.8884 28.7344L40.4413 29.9304C40.4436 30.0432 40.3605 30.5221 40.2431 31.1464C39.6411 34.8427 38.8667 39.1839 38.1553 42.4757Z" fill="#3D2B2C"/>
<path d="M49.2417 11.4583C39.3157 9.11848 39.1525 19.3113 39.1525 19.3113C39.1525 19.3113 37.6678 28.6811 40.6211 33.606C40.8588 34.0029 41.104 34.3729 41.3532 34.7172C43.874 38.2009 48.6471 38.8201 51.9848 36.1091C52.3227 35.8347 52.6624 35.5334 53.0032 35.2035C57.1416 31.1934 58.1497 21.7623 58.1497 21.7623C58.1497 21.7623 59.4431 11.7155 49.2417 11.4583Z" fill="#F5BCAE"/>
<path d="M39.726 15.9528C44.9327 20.4687 51.1882 16.9529 51.1882 16.9529C58.4747 13.0556 57.5044 21.2741 58.6139 19.2132C61.215 14.3834 56.0415 10.8005 56.0415 10.8005L43.3679 9.16406C43.3679 9.16406 35.768 12.5201 39.726 15.9528Z" fill="#3D2B2C"/>
<path d="M47.8281 30.5493C46.2535 30.5493 45.0678 29.3281 45.0139 29.2737C44.9423 29.1958 44.9423 29.0703 45.0197 28.9924C45.1153 28.9145 45.2293 28.9323 45.3009 28.9982C45.3129 29.0102 46.4207 30.1541 47.8275 30.1541C47.8573 30.1541 47.8876 30.1541 47.9174 30.1541C48.7554 30.1243 49.5459 29.6809 50.2527 28.8366C50.3123 28.753 50.4503 28.741 50.5282 28.8126C50.6119 28.8785 50.6239 29.0045 50.5523 29.0881C49.7681 30.0223 48.8877 30.5132 47.9237 30.543C47.894 30.543 47.8579 30.5493 47.8281 30.5493Z" fill="black"/>
<path d="M43.6325 23.4417C43.6405 24.1204 43.3959 24.6743 43.086 24.6778C42.7761 24.6812 42.519 24.1342 42.5109 23.4548C42.5029 22.7761 42.7475 22.2222 43.0574 22.2188C43.3667 22.2153 43.6244 22.7629 43.6325 23.4417Z" fill="#3B261C"/>
<path d="M51.9139 23.1719C51.9213 23.8094 51.6916 24.3295 51.4007 24.333C51.1097 24.3364 50.868 23.822 50.8605 23.1845C50.8531 22.547 51.0828 22.0269 51.3732 22.0235C51.6642 22.02 51.9064 22.5338 51.9139 23.1719Z" fill="#3B261C"/>
<path d="M44.5895 21.8297C44.5477 21.8297 44.5058 21.8119 44.4698 21.7878C42.7393 20.4166 41.6373 21.1051 41.5897 21.1469C41.4821 21.195 41.3744 21.1709 41.32 21.0873C41.2604 20.9974 41.2839 20.8719 41.3738 20.8175C41.4276 20.7694 42.7571 19.9492 44.7092 21.4762C44.7928 21.5421 44.8111 21.6675 44.7453 21.7517C44.7029 21.7999 44.649 21.8297 44.5895 21.8297Z" fill="black"/>
<path d="M49.7982 21.6216C49.7621 21.6216 49.7266 21.6096 49.6962 21.5918C49.6063 21.538 49.5765 21.4183 49.6304 21.3226C49.6601 21.2745 50.3967 20.0711 51.5761 19.9095C52.2348 19.8139 52.8993 20.0831 53.5282 20.6702C53.6118 20.7418 53.6118 20.8678 53.5402 20.9457C53.4623 21.0294 53.3484 21.0357 53.2647 20.9578C52.72 20.4485 52.169 20.2154 51.63 20.299C50.6419 20.4308 49.9712 21.5145 49.9654 21.5265C49.9299 21.5855 49.8641 21.6216 49.7982 21.6216Z" fill="black"/>
<path d="M56.4093 21.601C56.4093 21.601 56.6676 18.0766 58.5211 18.4586C60.3747 18.8407 61.9276 25.4645 57.4827 26.0482C53.0378 26.6318 56.4093 21.601 56.4093 21.601Z" fill="#F5BCAE"/>
<path d="M58.4266 24.7666C58.3728 24.7666 58.3189 24.7666 58.2588 24.7546C57.8813 24.6887 57.4265 24.3954 57.3125 23.9762C57.2644 23.7963 57.2466 23.4435 57.6596 23.1021C57.9111 22.8987 58.2765 22.6473 58.5039 22.8025C58.7554 22.964 58.6597 23.4131 58.6357 23.4973C58.6116 23.5809 58.5217 23.6113 58.4501 23.6113C58.3665 23.5872 58.3183 23.5036 58.3361 23.4257C58.3779 23.2642 58.3722 23.0906 58.3418 23.0603C58.3361 23.0603 58.2221 23.0425 57.8509 23.3415C57.6413 23.5151 57.5577 23.7006 57.6052 23.8925C57.6774 24.1497 57.9827 24.3954 58.312 24.4493C58.4197 24.4733 58.6414 24.4733 58.7491 24.3175C59.1563 23.7127 59.2761 21.473 58.4438 20.497C58.2702 20.2994 58.1562 20.3234 58.1087 20.3234C57.7135 20.4134 57.2942 21.4553 57.1269 22.09C57.1092 22.1558 57.0433 22.2039 56.9774 22.2039C56.9654 22.2039 56.9534 22.1982 56.9356 22.1982C56.8577 22.1741 56.8102 22.0905 56.8279 22.0063C56.8818 21.8207 57.3429 20.186 58.0434 20.0244C58.2049 20.0004 58.4323 20.0067 58.6723 20.2937C59.6066 21.3837 59.4628 23.8083 59.0017 24.4854C58.882 24.6709 58.6723 24.7666 58.4266 24.7666Z" fill="black"/>
<path d="M38.9113 22.159C38.9113 22.159 38.4278 18.6587 36.6023 19.1582C34.7768 19.6576 33.6513 26.3679 38.1243 26.6658C42.5978 26.9636 38.9113 22.159 38.9113 22.159Z" fill="#F5BCAE"/>
<path d="M37.043 25.4566C36.8213 25.4566 36.63 25.373 36.5103 25.2109C36.0074 24.5585 35.7078 22.151 36.5704 21.0072C36.7921 20.7076 37.0372 20.6658 37.181 20.6956C37.8936 20.8096 38.4566 22.4082 38.5162 22.5938C38.546 22.6717 38.5042 22.7616 38.4205 22.7857C38.3667 22.8155 38.2527 22.7737 38.2287 22.69C38.0133 22.0674 37.5339 21.0616 37.1329 20.9957C37.0968 20.9957 36.9771 20.9659 36.8156 21.187C36.0434 22.2169 36.3064 24.4445 36.7497 25.019C36.8694 25.1748 37.0728 25.1508 37.1931 25.133C37.5104 25.0551 37.8036 24.7916 37.8575 24.5281C37.8993 24.3305 37.8094 24.1507 37.582 23.9891C37.1988 23.7079 37.0607 23.7377 37.0728 23.7434C37.043 23.7732 37.0487 23.9467 37.0968 24.1025C37.1266 24.1862 37.0791 24.2704 37.0012 24.2944C36.9233 24.3242 36.8333 24.2824 36.8093 24.1988C36.7795 24.1088 36.6535 23.6718 36.8929 23.4919C37.1323 23.3184 37.4978 23.5521 37.7613 23.7377C38.1983 24.055 38.1983 24.4084 38.1622 24.594C38.0723 25.019 37.6295 25.3426 37.2578 25.4326C37.1804 25.4452 37.1088 25.4566 37.043 25.4566Z" fill="black"/>
<path d="M46.6602 26.7467C46.6184 26.7644 46.5645 26.7049 46.5702 26.6447C46.6 26.3154 46.9174 23.3993 47.6838 23.1719C47.7319 23.1719 47.7857 23.1896 47.7977 23.2377C47.8098 23.2859 47.7857 23.3334 47.7319 23.3517C47.2467 23.4955 46.8755 25.4596 46.7501 26.6688C46.7438 26.7112 46.7077 26.7467 46.6602 26.7467Z" fill="black"/>
<path d="M49.7589 71.0611C49.7589 71.7719 49.1826 72.3487 48.4712 72.3487C47.7604 72.3487 47.1836 71.7725 47.1836 71.0611C47.1836 70.3502 47.7598 69.7734 48.4712 69.7734C49.1826 69.7734 49.7589 70.3497 49.7589 71.0611Z" fill="#D0B49F"/>
<path d="M49.7589 75.4595C49.7589 76.1704 49.1826 76.7472 48.4712 76.7472C47.7604 76.7472 47.1836 76.1709 47.1836 75.4595C47.1836 74.7487 47.7598 74.1719 48.4712 74.1719C49.1826 74.1719 49.7589 74.7487 49.7589 75.4595Z" fill="#D0B49F"/>
<path d="M49.7589 79.8501C49.7589 80.561 49.1826 81.1378 48.4712 81.1378C47.7604 81.1378 47.1836 80.5616 47.1836 79.8501C47.1836 79.1393 47.7598 78.5625 48.4712 78.5625C49.1826 78.5631 49.7589 79.1393 49.7589 79.8501Z" fill="#D0B49F"/>
<path d="M48.2687 57.914C37.1341 57.914 35.9908 45.4294 35.9788 45.3034C35.9731 45.1957 36.0504 45.1058 36.1552 45.0938C36.161 45.0938 36.1644 45.0938 36.1701 45.0938C36.2692 45.0938 36.3529 45.1717 36.362 45.2673C36.3712 45.3933 37.4904 57.5302 48.2687 57.5302C48.3735 57.5302 48.4606 57.6139 48.4606 57.7221C48.4606 57.8298 48.3735 57.914 48.2687 57.914Z" fill="#3D2B2C"/>
<path d="M48.2685 57.914C48.1636 57.914 48.0771 57.8304 48.0771 57.7221C48.0771 57.6144 48.1642 57.5302 48.2685 57.5302C59.0524 57.5302 60.1637 45.3928 60.1723 45.2673C60.1814 45.1717 60.265 45.0938 60.3641 45.0938C60.3699 45.0938 60.3733 45.0938 60.379 45.0938C60.4839 45.1058 60.5618 45.1957 60.5555 45.3034C60.544 45.4294 59.4001 57.914 48.2685 57.914Z" fill="#3D2B2C"/>
<path d="M90.4321 89.8672H6.42676V92.7197H90.4321V89.8672Z" fill="#AFCAF5"/>
</svg>
